<?xml version="1.0" standalone="no"?>
<!DOCTYPE svg PUBLIC "-//W3C//DTD SVG 20010904//EN"
 "http://www.w3.org/TR/2001/REC-SVG-20010904/DTD/svg10.dtd">
<svg version="1.0" xmlns="http://www.w3.org/2000/svg"
 width="1.5rem" height="1.5rem" viewBox="0 0 820.000000 820.000000"
 preserveAspectRatio="xMidYMid meet">

<g transform="translate(0.000000,820.000000) scale(0.100000,-0.100000)"
fill="#e81c1d" stroke="none">
<path d="M4093 7928 c-5 -7 -34 -56 -64 -108 -30 -52 -58 -103 -64 -112 -47
-79 -154 -266 -170 -296 -11 -20 -27 -48 -36 -62 -9 -14 -52 -88 -97 -165
-209 -365 -424 -737 -522 -905 -59 -102 -119 -207 -135 -235 -15 -27 -42 -75
-60 -105 -18 -30 -77 -131 -130 -225 -54 -93 -111 -191 -126 -216 -16 -25 -29
-49 -29 -52 0 -3 -14 -26 -31 -51 -17 -25 -27 -51 -23 -57 4 -8 3 -9 -4 -5 -7
4 -12 3 -12 -2 0 -8 -47 -92 -100 -182 -5 -8 -41 -69 -79 -135 -38 -66 -93
-160 -121 -210 -129 -222 -206 -355 -240 -415 -41 -72 -95 -167 -110 -190 -53
-85 -125 -218 -124 -227 1 -7 -1 -11 -5 -9 -3 3 -38 -50 -76 -117 -103 -180
-110 -194 -145 -292 -27 -76 -33 -109 -37 -211 -4 -79 -1 -145 7 -190 16 -87
62 -217 95 -266 14 -21 25 -40 25 -42 0 -3 20 -40 45 -82 25 -41 45 -77 45
-79 0 -2 102 -177 120 -205 5 -8 21 -37 35 -63 14 -27 44 -77 65 -113 22 -35
40 -69 40 -74 0 -6 5 -10 10 -10 6 0 10 -4 10 -8 0 -5 48 -91 106 -193 58
-101 115 -200 126 -219 11 -19 72 -125 135 -235 64 -110 141 -243 171 -295
111 -192 234 -357 346 -463 56 -52 174 -150 211 -173 17 -10 32 -21 35 -24 10
-13 128 -80 210 -120 337 -165 794 -202 1170 -93 312 90 573 257 803 512 91
101 152 187 234 331 33 58 93 161 132 230 40 69 83 143 96 165 12 22 70 123
129 223 58 101 106 186 106 188 0 2 22 39 48 82 27 42 62 102 79 132 17 30 78
137 136 238 58 100 108 188 111 195 4 6 24 41 46 77 133 217 170 332 171 530
1 176 -37 301 -147 481 -30 49 -54 92 -54 95 0 2 -20 37 -44 77 -23 39 -60
102 -80 140 -21 37 -41 67 -45 67 -4 0 -8 6 -8 13 0 6 -31 64 -68 127 -37 63
-98 169 -136 235 -38 66 -74 127 -79 135 -5 8 -25 44 -46 80 -20 36 -46 81
-57 100 -11 19 -31 55 -45 80 -32 58 -230 398 -249 428 -14 23 -15 22 -65 -65
-28 -48 -59 -100 -69 -115 -11 -14 -19 -28 -19 -31 0 -6 -10 -24 -195 -342
-70 -121 -171 -296 -225 -390 -54 -93 -109 -190 -124 -215 -15 -25 -39 -67
-54 -93 -15 -27 -47 -83 -73 -125 -25 -43 -52 -90 -61 -107 -8 -16 -43 -76
-76 -133 -34 -57 -62 -106 -62 -109 0 -3 -9 -18 -21 -34 -11 -16 -17 -34 -13
-40 4 -7 3 -9 -2 -6 -5 3 -59 -81 -119 -186 -60 -106 -128 -223 -150 -262 -23
-38 -67 -114 -99 -168 -32 -54 -62 -97 -68 -95 -6 2 -46 67 -90 143 -44 77
-86 148 -95 157 -9 10 -13 18 -9 18 6 0 -21 48 -34 60 -3 3 -14 22 -24 42 -13
26 -16 41 -9 50 6 7 24 38 40 68 17 30 72 127 123 215 51 88 135 232 185 320
88 152 216 375 339 587 31 53 56 101 56 106 0 6 4 12 8 14 4 2 19 23 33 48 35
61 277 482 383 663 47 82 86 151 86 153 0 3 11 21 25 41 13 20 22 40 19 45 -3
4 -1 8 5 8 13 0 56 79 82 151 18 48 21 74 17 149 -5 105 -7 110 -213 465 -71
121 -140 241 -154 268 -14 26 -28 47 -32 47 -3 0 -11 -11 -17 -25 -7 -14 -58
-105 -115 -203 -57 -97 -115 -197 -129 -222 -13 -25 -90 -157 -170 -295 -80
-137 -163 -281 -185 -320 -22 -38 -174 -302 -337 -585 -164 -283 -359 -621
-433 -750 -75 -129 -153 -264 -173 -300 -207 -355 -280 -481 -280 -484 0 -2
-22 -40 -50 -86 -27 -46 -50 -87 -50 -92 0 -4 74 -136 165 -293 230 -396 409
-708 463 -805 14 -25 36 -63 50 -84 13 -22 34 -58 47 -80 81 -149 156 -267
195 -306 114 -115 309 -147 458 -74 104 51 139 98 361 484 112 195 229 398
259 450 31 52 65 111 75 130 11 19 41 71 67 115 26 44 83 143 127 220 44 77
123 214 175 305 98 168 133 230 152 265 30 55 81 135 86 135 3 0 43 -66 90
-147 165 -284 182 -317 172 -333 -5 -8 -25 -45 -45 -83 -20 -37 -48 -84 -61
-105 -13 -20 -57 -95 -98 -167 -164 -285 -315 -547 -395 -683 -46 -79 -80
-148 -77 -155 4 -7 4 -9 -1 -5 -8 8 -28 -20 -70 -97 -21 -41 -78 -138 -213
-369 -81 -137 -193 -265 -281 -320 -252 -159 -511 -196 -771 -111 -93 31 -219
94 -256 130 -6 5 -29 25 -52 44 -86 69 -188 221 -365 541 -16 30 -33 60 -37
65 -5 6 -42 69 -82 140 -172 300 -298 517 -315 542 -11 16 -24 39 -31 53 -6
14 -16 32 -21 40 -6 8 -36 60 -67 115 -114 200 -133 232 -194 335 -45 76 -59
109 -52 120 5 8 105 182 221 385 117 204 237 411 266 460 60 102 150 260 320
555 112 194 246 427 265 460 23 39 157 269 293 505 82 143 223 386 312 540 89
154 190 330 225 390 34 61 70 124 80 140 10 17 33 57 52 90 19 33 45 76 57 97
64 107 72 265 19 373 -19 38 -141 251 -267 465 -30 52 -64 111 -74 130 -24 44
-22 43 -34 28z"/>
</g>
</svg>
